<svg id="Layer_1" data-name="Layer 1" xmlns="http://www.w3.org/2000/svg" xmlns:xlink="http://www.w3.org/1999/xlink" viewBox="0 0 497.71 351.78" data-imageid="resting-monochromatic" imageName="Resting" class="illustrations_image" style="width: 145px;"><defs><linearGradient id="linear-gradient" x1="266.7" y1="345.26" x2="269.72" y2="219.4" gradientUnits="userSpaceOnUse"><stop offset="0" stop-opacity="0"/><stop offset="0.99"/></linearGradient><linearGradient id="linear-gradient-2" x1="168.04" y1="158.83" x2="376.05" y2="166.37" gradientUnits="userSpaceOnUse"><stop offset="0.02" stop-color="#fff" stop-opacity="0"/><stop offset="0.58" stop-color="#fff" stop-opacity="0.39"/><stop offset="0.68" stop-color="#fff" stop-opacity="0.68"/><stop offset="1" stop-color="#fff"/></linearGradient><linearGradient id="linear-gradient-3" x1="179.67" y1="203.25" x2="78.73" y2="230.5" xlink:href="#linear-gradient"/><linearGradient id="linear-gradient-4" x1="204.39" y1="259.73" x2="124.75" y2="276.81" xlink:href="#linear-gradient"/><linearGradient id="linear-gradient-5" x1="27.65" y1="172.23" x2="135.76" y2="251.82" xlink:href="#linear-gradient"/><linearGradient id="linear-gradient-6" x1="139.95" y1="209.3" x2="36.94" y2="280.9" xlink:href="#linear-gradient"/><linearGradient id="linear-gradient-7" x1="127.89" y1="215.69" x2="138.7" y2="194.83" xlink:href="#linear-gradient-2"/><linearGradient id="linear-gradient-8" x1="127.52" y1="218.7" x2="138.32" y2="197.85" xlink:href="#linear-gradient-2"/><linearGradient id="linear-gradient-9" x1="127.96" y1="222.47" x2="138.76" y2="201.62" xlink:href="#linear-gradient-2"/><linearGradient id="linear-gradient-10" x1="181.7" y1="214.19" x2="209.83" y2="214.19" gradientUnits="userSpaceOnUse"><stop offset="0" stop-color="#e5c5d5"/><stop offset="0.42" stop-color="#ead4d1"/><stop offset="1" stop-color="#f0e9cb"/></linearGradient><linearGradient id="linear-gradient-11" x1="210.37" y1="243.13" x2="176.21" y2="268.59" xlink:href="#linear-gradient"/><linearGradient id="linear-gradient-12" x1="208.5" y1="241.34" x2="141.51" y2="278.52" xlink:href="#linear-gradient"/><linearGradient id="linear-gradient-13" x1="141.71" y1="340.44" x2="137.19" y2="113.84" xlink:href="#linear-gradient"/><linearGradient id="linear-gradient-14" x1="378.29" y1="152" x2="379.29" y2="251.48" xlink:href="#linear-gradient"/><linearGradient id="linear-gradient-15" x1="253.18" y1="282.39" x2="406.58" y2="282.39" xlink:href="#linear-gradient"/><linearGradient id="linear-gradient-16" x1="400.86" y1="170.16" x2="400.36" y2="278.44" xlink:href="#linear-gradient"/><linearGradient id="linear-gradient-17" x1="134.84" y1="201.82" x2="122.28" y2="235.82" xlink:href="#linear-gradient"/><linearGradient id="linear-gradient-18" x1="110.23" y1="164.87" x2="132.63" y2="164.87" xlink:href="#linear-gradient-10"/><linearGradient id="linear-gradient-19" x1="109.44" y1="228.2" x2="123.18" y2="228.2" xlink:href="#linear-gradient-10"/><linearGradient id="linear-gradient-20" x1="124.42" y1="181.53" x2="111.28" y2="193.34" xlink:href="#linear-gradient-10"/><linearGradient id="linear-gradient-21" x1="118.78" y1="186.78" x2="86.79" y2="188.71" xlink:href="#linear-gradient-10"/><linearGradient id="linear-gradient-22" x1="121.28" y1="156.97" x2="121.03" y2="182.43" xlink:href="#linear-gradient-10"/></defs><title>Staying home</title><path d="M7.59,268.49c-12.53-34-7.93-71.71,11.1-102.21,8-12.86,19.25-23,27.74-35.41C62.55,107.25,64.76,76.82,82,53.8c14.74-19.66,38.37-30.49,61.79-37.92,39.11-12.42,83.37-16.95,123-4,16.45,5.38,34.93,14.39,47,27,13.73,14.29,20,33.24,38.7,42.89,20.9,10.77,38.32.37,59.06,2.35,15.51,1.48,33.27,16.3,42.4,28.76,15.36,21,15.17,49,20.11,74.52,5.2,26.86,16.62,52.21,21.79,79.07,4.14,21.47,3.66,44.76-6.51,64.55-10.61,20.65-29.05,19.86-50.58,22.24-48.54,5.36-97.62,1.93-145.9-4.24-58.57-7.49-116.61-19.06-175.49-24.1C72.21,321,25.8,317.93,7.59,268.49Z" transform="translate(-0.58 -4.1)" fill="#68e1fd" opacity="0.18" style="isolation:isolate" class="target-color"/><path d="M58.06,300.89h419.4S451,331.58,411.85,329.57s-303.47-14.06-303.47-14.06S66,316.42,58.06,300.89Z" transform="translate(-0.58 -4.1)" fill="url(#linear-gradient)"/><polygon points="438.92 155.42 161.31 15.97 151.51 300.86 308.78 251.62 438.92 155.42" fill="url(#linear-gradient-2)"/><path d="M190.89,218.14a4.08,4.08,0,0,1-.83,2.09,6.73,6.73,0,0,1-3.93,2c-8.64,2-17.55,2.56-26.42,3.12a19.22,19.22,0,0,1-5-.11,18.1,18.1,0,0,1-5.14-2.2c-9.52-5.39-18.68-12.52-22.94-22.57-.46-1.06-.84-2.14-1.32-3.19a12.92,12.92,0,0,0-.86-1.65c-.53-.84-1.88-2.23-1.18-3.24s2.78-.36,3.61-.25a25,25,0,0,1,7.94,2.52c6.89,3.56,11.73,10.09,18,14.71a5.59,5.59,0,0,0,1.47.87,6.07,6.07,0,0,0,2.12.24c8.5-.1,16.89-1.73,25.34-2.62,2.16-.24,4.55-.35,6.28,1s2.22,3.64,2.6,5.77A12,12,0,0,1,190.89,218.14Z" transform="translate(-0.58 -4.1)" fill="#fff"/><path d="M190.89,218.14a4.08,4.08,0,0,1-.83,2.09,6.73,6.73,0,0,1-3.93,2c-8.64,2-17.55,2.56-26.42,3.12a19.22,19.22,0,0,1-5-.11,18.1,18.1,0,0,1-5.14-2.2c-9.52-5.39-18.68-12.52-22.94-22.57-.46-1.06-.84-2.14-1.32-3.19a14.79,14.79,0,0,1,2.2.26,24.91,24.91,0,0,1,7.93,2.52c6.91,3.56,11.74,10.1,18,14.72a4.65,4.65,0,0,0,3.61,1.1c8.49-.1,16.88-1.73,25.33-2.63,2.16-.22,4.56-.34,6.28,1A6.86,6.86,0,0,1,190.89,218.14Z" transform="translate(-0.58 -4.1)" fill="url(#linear-gradient-3)"/><path d="M187.94,229.26c4.23-.1,8.91,0,12.05,2.78,3.38,3,3.74,8.12,3.87,12.65l1.37,50c.07,2.79,0,5.93-2,7.87s-4.78,1.9-7.39,1.88c-9.65-.08-19.44-.17-28.73-2.83a105.56,105.56,0,0,1-14.06-5.5l-11.81-5.27a6.32,6.32,0,0,1-2.49-1.63,6.2,6.2,0,0,1-1-2.52,102.1,102.1,0,0,1,.23-43.81,25.16,25.16,0,0,1,2.31-6.78c4.2-7.57,11.36-6,18.83-6.13Z" transform="translate(-0.58 -4.1)" fill="#68e1fd" class="target-color"/><path d="M175.13,234c4.23-.1,8.91,0,12.05,2.79,3.38,3,3.74,8.11,3.87,12.65l1.36,50c.08,2.79-.63.81-2.64,2.75s-44.92.73-49.52-1.32l-11.82-5.28A6.25,6.25,0,0,1,126,294a6,6,0,0,1-1-2.51,102.1,102.1,0,0,1,.22-43.81,25.25,25.25,0,0,1,2.32-6.79c4.2-7.56,11.35-5.95,18.83-6.13Z" transform="translate(-0.58 -4.1)" fill="url(#linear-gradient-4)"/><path d="M96,191.25a26.67,26.67,0,0,0-8.41-1.64,122,122,0,0,0-23.86.65c-2.74.34-5.57.82-7.86,2.37-4.06,2.76-5.33,8.08-6.07,12.93A157.13,157.13,0,0,0,49.86,253c1.39,8.91.2,18,.11,27-.07,7-.83,18.14,4.64,22.42,2.79,2.19,40.68,3.06,55.55,3.39,20.43.45,40.86.91,61.29,1,4.2,0,8.46,0,12.51-1.11a6.33,6.33,0,0,0,2.83-1.39c1.72-1.67,1.42-4.46,1-6.81q-1.45-7.46-3.38-14.81c-1-3.83-.36-7.88-.41-11.84,0-3.44-.1-7-1.54-10.12-1.73-3.78-5.3-6.46-9.13-8.06s-8-2.28-12.07-3.08C148.86,247.16,136,243,128,233.24c-4.56-5.59-7.08-12.51-10.17-19s-7.09-13-13.41-16.51C101.37,196,99.16,192.6,96,191.25Z" transform="translate(-0.58 -4.1)" fill="#68e1fd" class="target-color"/><path d="M63.17,203.62l3.12,23c.36,2.66.85,5.57,2.87,7.35s5.13,1.88,7.91,1.84l54.46-.83-16.71-25.42a57.62,57.62,0,0,0-6.27-8.37c-5.78-6-14-9.24-22.26-10.42a89.15,89.15,0,0,0-19.73-.17c-3.45.28-4.89-.2-4.56,3.55C62.28,197.29,62.74,200.46,63.17,203.62Z" transform="translate(-0.58 -4.1)" fill="url(#linear-gradient-5)"/><path d="M97.79,205.44a35.48,35.48,0,0,0,1,6.32,71.3,71.3,0,0,0,3.39,9.62l8.65,21.15a9.78,9.78,0,0,0,1.45,2.68,7.59,7.59,0,0,0,3.67,2.14,32.12,32.12,0,0,0,7.63,1.12,142,142,0,0,0,25.91-.78c1.84-.23,4.12-.92,4.37-2.76a4.11,4.11,0,0,0-.27-1.76c-3.5-11.27-11.41-20.84-14.5-32.23-.55-2-.94-4.07-1.55-6.06a35.28,35.28,0,0,0-4-8.42,15,15,0,0,0-2.33-3,12.66,12.66,0,0,0-4.11-2.4c-5.5-2.1-10.75-3.52-16.63-3.27-1.72.08-4.3,1.76-5.89,2.39-3.13,1.24-5.17,4.41-5.92,7.69s-.44,6.69-.12,10" transform="translate(-0.58 -4.1)" fill="#fff"/><path d="M134.6,236c-.31-1.49-.27-3-.61-4.52-.86-3.7-4.07-6.49-7.57-8s-7.35-1.9-11.1-2.54c-1.86-.32-3.82-.74-5.19-2-2.08-2-2.13-5.18-2.47-8a28.51,28.51,0,0,0-2.56-8.81,1.43,1.43,0,0,0-.59-.73,1.37,1.37,0,0,0-1.28.29c-2.73,1.87-3.92,5.41-3.81,8.72s1.31,6.47,2.51,9.56l6.72,17.41c.82,2.13,1.7,4.35,3.45,5.81,2.38,2,5.75,2.11,8.85,2,5.69-.2,13.55-.06,18.75-2.47C137.35,240.86,135.26,239.07,134.6,236Z" transform="translate(-0.58 -4.1)" fill="url(#linear-gradient-6)"/><path d="M120.59,206a1.27,1.27,0,0,1,1.5-.6c.22-.82-.27-1.87.35-2.45.41-.39,1.11-.3,1.56-.65s.5-1,.75-1.55a2.11,2.11,0,0,1,2.89-.87c-.07-.51-.08-1.14.36-1.42s1.06,0,1.54-.18c.8-.36.46-1.67,1-2.33a1.56,1.56,0,0,1,.59-.39,3.45,3.45,0,0,1,4.71,2.75,1.85,1.85,0,0,1,2.85,2.13,2.16,2.16,0,0,1,2.37,2,1.88,1.88,0,0,1,1.55,1.73c0-.1.08-.18.16-.23a1.07,1.07,0,0,1,1.37.53,3.19,3.19,0,0,1,.22,1.6l-.05,1.45a.71.71,0,0,1-.08.38.78.78,0,0,1-.36.22c-5.47,2-11.12,4.13-17,3.89a10.24,10.24,0,0,1-4.2-.92C120.88,210.11,119.35,208.06,120.59,206Z" transform="translate(-0.58 -4.1)" fill="#68e1fd" class="target-color"/><path d="M120.59,206a1.27,1.27,0,0,1,1.5-.6c.22-.82-.27-1.87.35-2.45.41-.39,1.11-.3,1.56-.65s.5-1,.75-1.55a2.11,2.11,0,0,1,2.89-.87c-.07-.51-.08-1.14.36-1.42s1.06,0,1.54-.18c.8-.36.46-1.67,1-2.33a1.56,1.56,0,0,1,.59-.39,3.45,3.45,0,0,1,4.71,2.75,1.85,1.85,0,0,1,2.85,2.13,2.16,2.16,0,0,1,2.37,2,1.88,1.88,0,0,1,1.55,1.73c0-.1.08-.18.16-.23a1.07,1.07,0,0,1,1.37.53,3.19,3.19,0,0,1,.22,1.6l-.05,1.45a.71.71,0,0,1-.08.38.78.78,0,0,1-.36.22c-5.47,2-11.12,4.13-17,3.89a10.24,10.24,0,0,1-4.2-.92C120.88,210.11,119.35,208.06,120.59,206Z" transform="translate(-0.58 -4.1)" fill="url(#linear-gradient-7)"/><path d="M120.22,209a1.24,1.24,0,0,1,1.49-.59c.23-.82-.27-1.87.35-2.45.42-.39,1.11-.3,1.57-.65s.5-1,.74-1.56a2.12,2.12,0,0,1,2.89-.87c-.06-.51-.08-1.14.36-1.41s1.06,0,1.54-.19c.8-.36.46-1.67,1-2.33a1.58,1.58,0,0,1,.6-.38,3.44,3.44,0,0,1,4.7,2.75,1.85,1.85,0,0,1,2.85,2.13,2.15,2.15,0,0,1,2.37,2,1.87,1.87,0,0,1,1.55,1.73c0-.1.08-.18.17-.23a1.06,1.06,0,0,1,1.36.53,3.06,3.06,0,0,1,.23,1.59L144,210.5a.82.82,0,0,1-.09.38.68.68,0,0,1-.36.23c-5.47,2-11.12,4.12-17,3.88a10.29,10.29,0,0,1-4.21-.92C120.5,213.13,119,211.08,120.22,209Z" transform="translate(-0.58 -4.1)" fill="url(#linear-gradient-8)"/><path d="M120.66,212.78a1.26,1.26,0,0,1,1.49-.6c.23-.81-.27-1.86.35-2.44.42-.4,1.11-.31,1.56-.66s.51-1,.75-1.55a2.11,2.11,0,0,1,2.89-.87c-.07-.51-.08-1.14.36-1.41s1.06,0,1.54-.19c.8-.36.46-1.67,1-2.33a1.58,1.58,0,0,1,.6-.38,3.48,3.48,0,0,1,3,.21,3.52,3.52,0,0,1,1.68,2.54,1.85,1.85,0,0,1,2.85,2.13,2.15,2.15,0,0,1,2.37,2,1.87,1.87,0,0,1,1.55,1.73.28.28,0,0,1,.17-.24,1.08,1.08,0,0,1,1.36.54,3,3,0,0,1,.23,1.59l-.06,1.45a.71.71,0,0,1-.08.38.67.67,0,0,1-.36.22c-5.47,2-11.12,4.13-17,3.89a10.29,10.29,0,0,1-4.21-.92C120.94,216.9,119.42,214.85,120.66,212.78Z" transform="translate(-0.58 -4.1)" fill="url(#linear-gradient-9)"/><path d="M191.31,209.64c.87-.47,1.63-1.13,2.52-1.58a11.39,11.39,0,0,1,4.09-.92,12.8,12.8,0,0,1,3.86.05,4.72,4.72,0,0,1,3.15,2.05c.28.47.45,1,.74,1.49.74,1.2,2.17,1.8,3.1,2.87a4.37,4.37,0,0,1-1.2,6.69,7.92,7.92,0,0,1-3.09.78c-6.59.69-13.24,0-19.83-.61a4.26,4.26,0,0,1-1.18-.23,3.33,3.33,0,0,1-1.74-2.9,7.11,7.11,0,0,1,2.64-6.15c.89-.66,1.87-.38,2.94-.48A10.47,10.47,0,0,0,191.31,209.64Z" transform="translate(-0.58 -4.1)" fill="url(#linear-gradient-10)"/><rect x="191.72" y="206.58" width="32.55" height="5.48" rx="2.33" fill="#3e3e54"/><path d="M139.31,244.6s49.2-1.72,53.49.64,41.47,51.13,41.47,51.13l-17.62.65-28.36-35.88-48.77-.21s-21.7,3.65-24.27.21-3-15.93-3-15.93Z" transform="translate(-0.58 -4.1)" fill="#68e1fd" class="target-color"/><path d="M139.31,244.6s49.2-1.72,53.49.64,41.47,51.13,41.47,51.13l-17.62.65-28.36-35.88-48.77-.21s-21.7,3.65-24.27.21-3-15.93-3-15.93Z" transform="translate(-0.58 -4.1)" fill="url(#linear-gradient-11)"/><path d="M114,242.88s55.86-1.29,60.37,5.16,26.74,48.44,26.74,48.44l-17.4,1.13L165,261.68s-46,5.21-49.73-.54S110,243.9,114,242.88Z" transform="translate(-0.58 -4.1)" fill="#68e1fd" class="target-color"/><path d="M114,242.88s55.86-1.29,60.37,5.16,26.74,48.44,26.74,48.44l-17.4,1.13L165,261.68s-46,5.21-49.73-.54S110,243.9,114,242.88Z" transform="translate(-0.58 -4.1)" fill="url(#linear-gradient-12)"/><path d="M184.29,308.69q17.1.15,34.18-.08A7.66,7.66,0,0,0,214,300c-2.44-1-5.22-.6-7.73-1.35-1.24-.37-2.39-1-3.62-1.38a18.69,18.69,0,0,0-6.55-.39l-6.39.37c-1.28.07-4.6-.36-5.59.51C182.38,299.26,184,306.62,184.29,308.69Z" transform="translate(-0.58 -4.1)" fill="#3e3e54"/><path d="M242,297.08a14.93,14.93,0,0,1,4.53.54,7.72,7.72,0,0,1,4.82,9,1,1,0,0,1-.27.51,1.07,1.07,0,0,1-.73.18l-14.48,0c-5.82,0-11.64,0-17.45-.34a1.22,1.22,0,0,1-.65-.18,1.18,1.18,0,0,1-.35-.58,20.58,20.58,0,0,1-1-8.46,1,1,0,0,1,1.18-1.13C225.73,296.38,233.86,297,242,297.08Z" transform="translate(-0.58 -4.1)" fill="#3e3e54"/><path d="M125.74,235.44c2.63,0,5.36.06,7.7,1.23,4.55,2.27,6.21,7.89,6.76,12.94a122.29,122.29,0,0,1,.17,18.36l-.75,18.42a3.7,3.7,0,0,0,.44,2.35,3.28,3.28,0,0,0,1.55,1c5.46,2.13,11.54,1.46,17.39,1.41a78.81,78.81,0,0,1,14.79,1.29,6.5,6.5,0,0,1,3.43,1.39c1.24,1.2,1.36,3.12,1.4,4.85.06,2.46-.06,5.32-2,6.79a7.37,7.37,0,0,1-3.89,1.11c-22.92,2-45.38-6.57-68.31-8.34-11.14-.86-22.85-.23-32.85-5.19a10.9,10.9,0,0,1-3.77-2.75,10.51,10.51,0,0,1-1.93-5.42c-.84-6.91,1-14-.21-20.83-.95-5.43-3.79-10.59-3.49-16.1A14.7,14.7,0,0,1,67,238c3-2.73,6.81-1.7,10.67-1.84q15.36-.54,30.73-.69Q117.06,235.39,125.74,235.44Z" transform="translate(-0.58 -4.1)" fill="#68e1fd" class="target-color"/><path d="M120.1,297.53c-.15,2-.29,4.19.75,5.92,1.42,2.38,4.48,3.08,7.21,3.57,7.55,1.34,15.24,2.69,22.85,1.79,3.23-.38,6.6-1.27,8.86-3.61s2.91-6.47.61-8.78c-2-2-5.12-1.93-7.92-2a56.7,56.7,0,0,1-9.37-.87c-2.36-.42-4.91-1.13-6.29-3.1a9.77,9.77,0,0,1-1.32-4.86,197.09,197.09,0,0,1-.6-24.78c.25-6.55,1-15.05-4.51-19.85s-10.29.52-10.45,6.43c-.21,8.19,1,16.57,1.07,24.8Q121.05,284.89,120.1,297.53Z" transform="translate(-0.58 -4.1)" fill="url(#linear-gradient-13)"/><rect x="298.79" y="155.42" width="146.3" height="97.32" rx="13.05" fill="#3e3e54"/><rect x="305.66" y="155.42" width="146.3" height="97.32" rx="13.05" fill="#3e3e54"/><rect x="305.66" y="155.42" width="146.3" height="97.32" rx="13.05" fill="url(#linear-gradient-14)"/><rect x="283.32" y="264.99" width="153.39" height="34.8" fill="#68e1fd" class="target-color"/><rect x="283.32" y="264.99" width="153.39" height="34.8" fill="url(#linear-gradient-15)"/><rect x="323.49" y="264.99" width="153.39" height="34.8" fill="#68e1fd" class="target-color"/><path d="M385.09,193.29h22.37a10.09,10.09,0,0,1,10.09,10.09v61.46a0,0,0,0,1,0,0H375a0,0,0,0,1,0,0V203.37A10.09,10.09,0,0,1,385.09,193.29Z" fill="#3e3e54"/><path d="M389.38,193.29h22.37a10.09,10.09,0,0,1,10.09,10.09v61.46a0,0,0,0,1,0,0H379.3a0,0,0,0,1,0,0V203.37A10.09,10.09,0,0,1,389.38,193.29Z" fill="#3e3e54"/><path d="M389.38,193.29h22.37a10.09,10.09,0,0,1,10.09,10.09v61.46a0,0,0,0,1,0,0H379.3a0,0,0,0,1,0,0V203.37A10.09,10.09,0,0,1,389.38,193.29Z" fill="url(#linear-gradient-16)"/><rect x="211.13" y="95.48" width="64.45" height="54.14" fill="#68e1fd" class="target-color"/><rect x="215.64" y="100.13" width="55.58" height="45.63" fill="#fff"/><rect x="103.82" y="52.95" width="64.45" height="54.14" fill="#68e1fd" class="target-color"/><rect x="108.33" y="57.59" width="55.58" height="45.63" fill="#fff"/><path d="M116,84c2.3-2.37,5.58-4.47,8.73-3.47,2,.63,3.37,2.32,4.9,3.73a20.52,20.52,0,0,0,6,3.84,3.47,3.47,0,0,0,1.75.36,4,4,0,0,0,1.65-.77,38.47,38.47,0,0,1,10.64-4.83c1.58-.44,3.35-.76,4.79,0a9.09,9.09,0,0,1,2.49,2.6,15.66,15.66,0,0,0,6.21,4.74,2.44,2.44,0,0,1,1.22.82,2.17,2.17,0,0,1,.24,1.1l.82,15.71a551.63,551.63,0,0,1-58.79-.41c-.27,0,.54-14.19,1-15.45.56-1.67,1.88-2,3.24-3A43.26,43.26,0,0,0,116,84Z" transform="translate(-0.58 -4.1)" fill="#68e1fd" opacity="0.18" style="isolation:isolate" class="target-color"/><rect x="188.9" y="35.22" width="49.87" height="41.89" fill="#68e1fd" class="target-color"/><rect x="192.39" y="38.81" width="43.01" height="35.31" fill="#fff"/><polygon points="118.64 217.19 116.6 203.87 146.04 203.87 141.53 231.05 120.47 230.72 118.64 217.19" fill="#68e1fd" class="target-color"/><polygon points="118.64 217.19 116.6 203.87 146.04 203.87 141.53 231.05 120.47 230.72 118.64 217.19" fill="url(#linear-gradient-17)"/><polygon points="121.55 204.25 125.41 230.35 128.8 230.51 127.35 204.08 121.55 204.25" fill="#fff"/><polygon points="134.92 204.25 132.66 230.51 136.69 231.05 141.2 203.87 134.92 204.25" fill="#fff"/><path d="M31.13,273.42c-.08-1.64-.09-3.47,1-4.69a5.88,5.88,0,0,1,3.31-1.5,42.78,42.78,0,0,1,22.38,1.45,6,6,0,0,1,3,1.78c1,1.28.84,3,.67,4.64q-1.22,11.19-2.5,22.37a8.36,8.36,0,0,1-.91,3.42c-3.23,5.34-19.58,4.58-23.53,0C29.43,295,31.13,280.58,31.13,273.42Z" transform="translate(-0.58 -4.1)" fill="#fff"/><path d="M29.7,258.57c-3.77-4.62-6.48-10.3-6.63-16.26a55.13,55.13,0,0,1,10,2.72,18.36,18.36,0,0,1,8.18,6.15c2.78,4,3.23,9.12,3.36,14,.17,5.92-2.33,4.67-6,1.82A53.7,53.7,0,0,1,29.7,258.57Z" transform="translate(-0.58 -4.1)" fill="#3e3e54"/><path d="M39.86,247.3c0-6,1.42-12.08,5-16.81A55.3,55.3,0,0,1,51,238.88a18.36,18.36,0,0,1,2.5,9.93c-.34,4.85-3.21,9.12-6.16,13-3.59,4.71-4.75,2.17-5.82-2.36A53.53,53.53,0,0,1,39.86,247.3Z" transform="translate(-0.58 -4.1)" fill="#3e3e54"/><path d="M51.56,253.36c4.1-4.33,9.4-7.73,15.29-8.63A54.41,54.41,0,0,1,65.42,255a18.37,18.37,0,0,1-5.07,8.89c-3.61,3.26-8.63,4.36-13.44,5.11-5.85.91-4.93-1.73-2.57-5.74A53.91,53.91,0,0,1,51.56,253.36Z" transform="translate(-0.58 -4.1)" fill="#3e3e54"/><path d="M132.63,158.78a43.29,43.29,0,0,1-5.21.26l-9.26.05a4.65,4.65,0,0,0-3,.7,4.27,4.27,0,0,0-1.06,1.49c-.92,1.89-1.66,3.69-1.31,5.78.12.67.42,7.2.64,7.22a6.06,6.06,0,0,1-3-.87,1.53,1.53,0,0,1-.16-.13c-.16-3.93.51-8,2.74-11.27,2.82-4.13,7.87-6.37,12.86-6.54a7.49,7.49,0,0,1,4.43.94A14.58,14.58,0,0,1,132.63,158.78Z" transform="translate(-0.58 -4.1)" fill="url(#linear-gradient-18)"/><path d="M111.06,187.05c-1.24-.19-8.37,1.91-9.61,2.07A10.52,10.52,0,0,0,97,191c-5.2,3.53-8.8,8.9-12.07,14.26-1.94,3.19-3.82,6.43-5.61,9.71-1.7,3.1-3.37,6.39-3.36,9.93a8.23,8.23,0,0,0,.77,3.63,8.94,8.94,0,0,0,5.55,4.3,26.87,26.87,0,0,0,7.16.82l16.26.37a65.2,65.2,0,0,0,12.88-.55,3.8,3.8,0,0,0,2.79-1.46,4,4,0,0,0,.32-2.24l-.27-5.15a3.74,3.74,0,0,0-.49-2c-.64-.92-1.91-1.09-3-1.14-6.61-.33-13.26.53-19.83-.2a.94.94,0,0,1-.67-.27.88.88,0,0,1-.09-.6c.26-2.56,2.27-4.54,3.94-6.51a31.2,31.2,0,0,0,6.89-14.72,8.45,8.45,0,0,1,1-3.25,19.48,19.48,0,0,1,2.45-2.44C115.13,189.64,113.21,187.37,111.06,187.05Z" transform="translate(-0.58 -4.1)" fill="#fff"/><path d="M113,223.61a4.73,4.73,0,0,0-3.1,1.93,4.82,4.82,0,0,0-.42,2c0,.76-.07,1.53-.06,2.29A3.76,3.76,0,0,0,110,232a3.83,3.83,0,0,0,2.57,1.16,55.25,55.25,0,0,0,7.49.53,2.9,2.9,0,0,0,2.38-.71,2.84,2.84,0,0,0,.45-1.6,44.84,44.84,0,0,0,.21-7.68c-.12-1.06-1.24-.92-2.12-1a20.42,20.42,0,0,0-3.75.06A25.84,25.84,0,0,0,113,223.61Z" transform="translate(-0.58 -4.1)" fill="url(#linear-gradient-19)"/><path d="M122.09,193a7.32,7.32,0,0,1-.53,2.95,4.44,4.44,0,0,1-3.67,2.3,6.53,6.53,0,0,1-5.32-2.47,10.81,10.81,0,0,1-2.21-5.58,32.61,32.61,0,0,1,0-6.09,7.27,7.27,0,0,1,.2-1.4,4.61,4.61,0,0,1,1-1.67,4.69,4.69,0,0,1,2.43-1.64,4.59,4.59,0,0,1,2.35.17,8.28,8.28,0,0,1,4.49,3.39C122.68,185.83,122.23,189.7,122.09,193Z" transform="translate(-0.58 -4.1)" fill="url(#linear-gradient-20)"/><path d="M114.36,188.54a10.05,10.05,0,0,0,2.38,3.54,5.25,5.25,0,0,0,3.91,1.43,1.45,1.45,0,0,0,1-.38A1.86,1.86,0,0,0,122,192l.36-3.94a7.16,7.16,0,0,0-.06-2.4,5.54,5.54,0,0,0-1.21-2.15c-1.47-1.76-5-4.43-7.48-3C111.5,181.84,113.65,186.91,114.36,188.54Z" transform="translate(-0.58 -4.1)" fill="url(#linear-gradient-21)"/><path d="M134.91,175.48c-.23,3.38-.8,7-3,9.51a13.22,13.22,0,0,1-5.64,3.53,10.87,10.87,0,0,1-4.8.79,9,9,0,0,1-5.74-3.36,15.27,15.27,0,0,1-2.12-3.42c-.39-.84-.74-1.71-1-2.58a5.53,5.53,0,0,1-3.92-2,5.37,5.37,0,0,1-1.38-2.26,2.52,2.52,0,0,1,.64-2.46,1.7,1.7,0,0,1,2.31,0l.07.08v0a1.53,1.53,0,0,0,.16.13,6.06,6.06,0,0,0,3,.87c-.22,0-.52-6.55-.64-7.22-.35-2.09.39-3.89,1.31-5.78a4.27,4.27,0,0,1,1.06-1.49,4.65,4.65,0,0,1,3-.7l9.26-.05a43.29,43.29,0,0,0,5.21-.26,7.25,7.25,0,0,0,.62.62c.71.63.93.64,1.18,1.55a18.51,18.51,0,0,1,.34,3A69.71,69.71,0,0,1,134.91,175.48Z" transform="translate(-0.58 -4.1)" fill="url(#linear-gradient-22)"/><path d="M138.06,157a13.12,13.12,0,0,1-5.43,1.83,43.29,43.29,0,0,1-5.21.26l-9.26.05a4.65,4.65,0,0,0-3,.7,4.27,4.27,0,0,0-1.06,1.49c-.92,1.89-1.66,3.69-1.31,5.78.12.67.42,7.2.64,7.22a6.06,6.06,0,0,1-3-.87,1.53,1.53,0,0,1-.16-.13.18.18,0,0,1-.07-.05,1.7,1.7,0,0,0-2.31,0,2.52,2.52,0,0,0-.64,2.46,5.37,5.37,0,0,0,1.38,2.26,5.53,5.53,0,0,0,3.92,2c.31.87.66,1.74,1,2.58a6.58,6.58,0,0,1-5.41-1.88,13.83,13.83,0,0,1-3.16-5.06A32.16,32.16,0,0,1,102.75,163a13,13,0,0,1,.67-4.29,6.09,6.09,0,0,1,2.69-3.31,3.08,3.08,0,0,0,.81-.51,3.4,3.4,0,0,0,.58-1.91,6.5,6.5,0,0,1,3.25-4.08c4.8-3,10.83-2.87,16.49-2.84q6.69,0,13.36-.3c.56,0,1.22,0,1.5.48a1.11,1.11,0,0,1,.15.43A9.92,9.92,0,0,1,138.06,157Z" transform="translate(-0.58 -4.1)" fill="#3e3e54"/><path d="M206,55.34c3.25,0,5.87,2.5,8.47,4.45s6.28,3.47,9,1.65c1.42-1,2.19-2.65,3.54-3.71a7.92,7.92,0,0,1,5.36-1.28c1.51.09,3.17.47,4,1.7s.72,2.7.59,4.11c-.28,3.06-.64,6.31-2.56,8.71-2.57,3.22-7.11,3.94-11.21,4.26-5.8.46-11.94.53-17.05-2.25A30.86,30.86,0,0,0,202,70.73a4.79,4.79,0,0,0-4.51.36c-.95.73-1.61,2-2.8,2.13-4,.35-1.55-8.61-.36-10.52C196.4,59.46,202.13,55.29,206,55.34Z" transform="translate(-0.58 -4.1)" fill="#68e1fd" opacity="0.18" style="isolation:isolate" class="target-color"/><path d="M234.84,118.31c3.25,0,5.86,2.51,8.47,4.45s6.28,3.47,9,1.65c1.42-1,2.19-2.65,3.55-3.7a8,8,0,0,1,5.36-1.29c1.51.09,3.17.47,4.05,1.7s.72,2.7.59,4.11c-.29,3.06-.65,6.32-2.57,8.72-2.57,3.21-7.1,3.93-11.21,4.26-5.79.46-11.93.52-17-2.26a32,32,0,0,0-4.15-2.25,4.79,4.79,0,0,0-4.51.36c-1,.73-1.61,2-2.8,2.13-4,.36-1.55-8.61-.36-10.52C225.2,122.43,230.94,118.26,234.84,118.31Z" transform="translate(-0.58 -4.1)" fill="#68e1fd" opacity="0.18" style="isolation:isolate" class="target-color"/></svg>