<?xml version="1.0" standalone="no"?>
<!DOCTYPE svg PUBLIC "-//W3C//DTD SVG 20010904//EN"
 "http://www.w3.org/TR/2001/REC-SVG-20010904/DTD/svg10.dtd">
<svg version="1.0" xmlns="http://www.w3.org/2000/svg"
 width="500.000000pt" height="500.000000pt" viewBox="0 0 500.000000 500.000000"
 preserveAspectRatio="xMidYMid meet">
<metadata>
Created by potrace 1.14, written by Peter Selinger 2001-2017
</metadata>
<g transform="translate(0.000000,500.000000) scale(0.100000,-0.100000)"
fill="#000000" stroke="none">
<path d="M1418 4635 c-2 -2 -43 -5 -93 -9 -49 -3 -99 -8 -110 -10 -11 -2 -42
-7 -69 -10 -132 -18 -284 -74 -323 -119 -26 -31 -29 -43 -18 -82 7 -25 55 -87
55 -70 0 3 10 -5 22 -17 26 -26 30 -68 9 -94 -9 -11 -41 -38 -71 -62 -100 -78
-260 -224 -260 -237 0 -3 -11 -17 -24 -31 -30 -34 -66 -106 -70 -141 -6 -65
49 -105 118 -85 29 8 134 90 135 105 1 7 227 234 287 288 67 59 222 179 232
179 6 0 12 4 14 8 2 5 26 23 53 42 28 18 53 38 57 44 4 6 8 7 8 2 0 -4 12 0
28 10 43 29 214 114 229 114 7 0 13 5 13 10 0 6 6 10 13 10 6 0 62 17 122 39
142 50 178 61 198 61 9 0 17 6 17 14 0 9 -19 16 -57 21 -32 4 -69 10 -83 12
-27 5 -428 12 -432 8z"/>
<path d="M2549 4555 c-3 -2 -45 -5 -94 -6 -82 -2 -161 -9 -270 -25 -52 -7
-182 -39 -265 -65 -92 -29 -269 -100 -276 -110 -3 -5 -14 -9 -25 -9 -10 0 -19
-4 -19 -10 0 -5 -5 -10 -11 -10 -14 0 -183 -101 -187 -112 -2 -4 -8 -8 -13 -8
-9 0 -142 -98 -198 -145 -51 -44 -178 -173 -216 -220 -22 -28 -44 -55 -50 -62
-5 -6 -18 -22 -28 -35 -9 -13 -28 -37 -42 -54 -14 -18 -25 -36 -25 -42 0 -6
-4 -12 -8 -14 -21 -9 -155 -255 -146 -270 3 -4 1 -8 -4 -8 -13 0 -112 -266
-126 -340 -2 -14 -7 -32 -10 -40 -3 -8 -7 -31 -10 -50 -3 -19 -8 -44 -10 -56
-2 -11 -7 -45 -10 -75 -3 -30 -8 -65 -11 -79 -7 -31 -8 -295 -1 -370 5 -57 12
-109 23 -170 3 -19 7 -44 9 -55 3 -17 35 -145 48 -195 10 -33 55 -157 69 -190
61 -137 92 -200 99 -200 4 0 8 -6 8 -13 0 -12 114 -196 129 -207 3 -3 17 -22
31 -42 14 -21 28 -38 33 -38 4 0 7 -4 7 -10 0 -5 10 -20 23 -33 12 -13 43 -45
68 -73 60 -63 167 -163 203 -189 16 -11 36 -27 45 -36 24 -24 197 -139 209
-139 6 0 12 -4 14 -8 4 -10 209 -114 214 -109 2 2 -11 21 -29 43 -51 60 -90
155 -105 254 -12 76 -5 252 13 320 4 14 8 32 9 40 2 8 8 28 15 44 6 16 13 36
15 45 2 9 7 27 12 41 9 29 84 183 93 190 3 3 13 19 21 35 8 17 17 32 20 35 3
3 17 21 30 40 38 55 68 88 165 185 90 89 106 104 155 138 36 25 16 21 -88 -18
-51 -19 -103 -37 -115 -39 -12 -3 -22 -5 -22 -6 0 -1 -7 -3 -15 -5 -8 -2 -43
-10 -78 -18 -34 -9 -65 -16 -67 -16 -3 -1 -6 -1 -7 -2 -6 -1 -44 -8 -88 -15
-67 -10 -257 -12 -320 -4 -176 25 -205 32 -208 56 -4 26 87 201 149 287 27 37
49 69 49 71 0 20 266 283 360 356 25 19 50 40 55 47 6 8 22 21 36 31 14 9 64
45 110 80 46 35 95 71 108 80 13 9 29 22 36 29 7 7 15 9 19 6 3 -4 6 -1 6 5 0
5 17 21 38 33 20 13 42 28 48 34 6 5 22 18 35 27 67 48 156 114 169 125 8 7
58 48 110 92 168 139 271 249 362 386 33 50 59 94 58 99 -1 5 2 12 7 15 11 8
50 99 71 165 19 64 20 65 27 101 3 17 11 50 17 75 6 25 12 118 14 207 4 154 4
163 -15 173 -11 5 -24 10 -28 9 -4 -1 -10 0 -13 1 -3 1 -16 3 -30 5 -26 3 -97
13 -140 21 -14 2 -70 7 -125 10 -55 3 -103 8 -106 10 -3 2 -8 2 -10 -1z m-278
-326 c64 -45 71 -133 16 -196 -50 -57 -166 -42 -202 27 -63 123 75 248 186
169z"/>
<path d="M605 4393 c-34 -6 -135 -47 -135 -55 0 -5 -7 -8 -14 -8 -17 0 -139
-90 -168 -123 -30 -35 -58 -101 -48 -111 6 -6 10 -18 10 -27 0 -24 39 -45 82
-43 84 4 326 164 361 238 28 58 17 99 -31 117 -20 8 -46 13 -57 12z"/>
<path d="M3330 4381 c0 -5 4 -11 8 -13 13 -5 66 -79 68 -96 2 -8 7 -18 11 -21
8 -6 28 -62 41 -121 9 -38 8 -268 -1 -323 -8 -48 -53 -203 -65 -222 -4 -5 -7
-12 -7 -15 -1 -3 -9 -23 -19 -45 -9 -22 -16 -42 -16 -44 1 -2 -2 -7 -7 -10 -9
-6 -73 -109 -73 -117 0 -5 -15 -24 -42 -55 -10 -10 -16 -19 -13 -19 13 0 -226
-245 -270 -277 -30 -21 -30 -21 -5 -19 14 2 54 13 90 26 65 22 93 31 97 31 2
0 17 5 35 10 53 16 100 28 141 34 15 3 42 7 60 11 68 13 333 12 417 -1 112
-18 132 -23 143 -34 19 -19 -184 -381 -214 -381 -5 0 -9 -4 -9 -10 0 -30 -292
-309 -436 -417 -16 -12 -38 -29 -49 -38 -30 -23 -130 -98 -156 -117 -13 -9
-49 -35 -79 -57 -176 -128 -226 -166 -235 -176 -5 -6 -30 -25 -55 -42 -25 -17
-54 -39 -65 -50 -12 -10 -53 -46 -93 -81 -136 -120 -239 -236 -316 -356 -48
-75 -120 -234 -131 -286 -2 -14 -11 -54 -19 -90 -22 -97 -27 -142 -31 -282 -3
-105 -1 -130 11 -143 9 -8 21 -15 27 -16 7 0 19 -2 27 -4 50 -10 122 -21 210
-31 115 -14 404 -8 525 11 22 4 51 8 65 9 88 11 324 84 430 134 30 14 57 26
60 27 6 1 98 49 147 76 69 38 193 122 193 131 0 4 6 8 13 8 6 0 26 14 44 30
18 17 35 30 39 30 7 0 60 48 143 131 195 194 320 382 451 682 21 50 72 201 75
227 1 8 5 22 8 30 6 14 15 53 21 90 6 38 19 107 22 125 17 82 23 369 11 487
-7 60 -23 166 -32 208 -4 14 -8 36 -11 50 -2 14 -7 32 -10 40 -3 8 -8 26 -10
40 -3 14 -7 32 -11 40 -3 8 -8 24 -10 35 -2 11 -24 71 -49 135 -128 321 -322
589 -585 811 -152 128 -213 169 -405 271 -97 51 -104 53 -104 39z m-409 -3371
c80 -33 80 -179 1 -222 -37 -20 -117 -15 -143 8 -34 31 -51 73 -46 115 11 94
93 138 188 99z"/>
<path d="M2896 2972 c-3 -5 1 -9 9 -9 8 0 12 4 9 9 -3 4 -7 8 -9 8 -2 0 -6 -4
-9 -8z"/>
<path d="M4475 1357 c-40 -13 -83 -46 -142 -108 -87 -94 -217 -221 -283 -278
-35 -31 -71 -63 -81 -71 -26 -24 -55 -47 -132 -104 -210 -155 -471 -278 -757
-357 -44 -11 -44 -12 -17 -20 127 -35 639 -38 815 -4 11 2 36 6 56 9 63 10
171 38 180 47 6 5 17 9 26 9 26 0 100 58 111 87 14 37 -4 75 -57 121 -34 29
-44 44 -44 67 1 36 11 50 75 101 104 82 186 155 243 216 52 56 111 145 113
170 1 10 2 28 3 41 5 57 -48 94 -109 74z"/>
<path d="M4627 967 c-34 -17 -63 -34 -65 -39 -2 -4 -9 -8 -16 -8 -12 0 -22 -7
-112 -78 -85 -67 -110 -133 -69 -180 37 -42 102 -37 208 16 185 95 274 206
229 285 -9 15 -21 28 -27 28 -66 8 -92 4 -148 -24z"/>
</g>
</svg>
